Coordinates
version=1
nRows=8
nColumns=36
inDegrees=yes

Units are S.I. units (second, meters, Newtons, ...)
If the header above contains a line with 'inDegrees', this indicates whether rotational values are in degrees (yes) or radians (no).

endheader
time	pelvis_tilt	pelvis_list	pelvis_rotation	pelvis_tx	pelvis_ty	pelvis_tz	hip_flexion_r	hip_adduction_r	hip_rotation_r	knee_angle_r	knee_angle_r_beta	ankle_angle_r	subtalar_angle_r	mtp_angle_r	hip_flexion_l	hip_adduction_l	hip_rotation_l	knee_angle_l	knee_angle_l_beta	ankle_angle_l	subtalar_angle_l	mtp_angle_l	lumbar_extension	lumbar_bending	lumbar_rotation	arm_flex_r	arm_add_r	arm_rot_r	elbow_flex_r	pro_sup_r	arm_flex_l	arm_add_l	arm_rot_l	elbow_flex_l	pro_sup_l
      0.00000000	     25.10853666	      3.88957362	      6.50951570	      0.18898647	      1.19984200	      0.18260454	    -28.44420912	      2.51558038	     -3.23990942	      6.69491907	      0.11684838	     16.52624430	     -8.45547865	     -7.16090205	    -29.76873320	     -0.30107244	     -3.19947224	      3.95544787	      0.06903559	     17.01084274	      0.99627236	     -7.16090205	    -40.38332848	      2.17711902	      0.58168549	     15.65768895	     -6.54652871	     21.25621204	     24.49087155	     73.57438836	     12.08555283	     -4.82273544	     23.77163680	     23.16489931	     64.98391026
      0.01666670	     25.68998037	      4.99722843	      6.16809024	      0.18671805	      1.20286761	      0.18259532	    -28.37163293	      1.70327456	     -2.85508477	      7.50661891	      0.13101522	     17.91914551	     -8.92887440	     -7.28169214	    -29.77669569	      1.41429539	     -2.98737673	      4.50923860	      0.07870106	     17.13440914	      2.46295374	     -7.28169214	    -41.91506583	      1.51803622	     -0.00383288	     15.60243466	     -5.63084881	     12.46813334	     26.44641538	     86.79575565	     11.96980496	     -4.44177379	     19.79086556	     23.55611895	     70.16659402
      0.03333330	     25.38982836	      5.98978330	      5.95061185	      0.18667266	      1.20292943	      0.18462184	    -28.68517489	      0.76942016	     -4.09138867	      6.15609313	      0.10744409	     17.53972857	     -8.32020941	     -7.47829661	    -29.77846330	      2.44033905	     -3.87344327	      3.99737404	      0.06976734	     17.53006044	      4.39945284	     -7.47829661	    -41.74526649	      0.23274915	      0.19862682	     15.14222725	     -4.68001068	      7.66601249	     27.31573827	     90.39841468	     12.31208581	     -4.41596363	     19.47984983	     23.10351157	     70.05399584
      0.05000000	     25.32569553	      6.50083815	      5.93094291	      0.18464462	      1.20404862	      0.18401596	    -28.69008929	      0.14326270	     -4.89932420	      6.13421322	      0.10706222	     17.80579158	     -7.25919435	     -7.47986323	    -29.80956519	      3.02611953	     -4.03965583	      3.95442785	      0.06901779	     17.55001238	      4.60379279	     -7.47986323	    -42.09996608	     -0.29012592	      0.34279685	     15.16824455	     -4.59112734	      6.24575289	     28.00264382	     88.76916872	     12.40917108	     -4.45821758	     18.81476439	     23.04396358	     69.51957363
      0.06666670	     25.27579028	      6.67611605	      5.90248902	      0.18442144	      1.20520106	      0.18517407	    -28.77426808	      0.01617033	     -4.66492577	      5.80617564	      0.10133688	     17.27457153	     -7.40761685	     -7.49796252	    -29.82310320	      3.24134685	     -4.38350628	      3.78654766	      0.06608772	     17.31242098	      4.80153313	     -7.49796252	    -42.28597389	     -0.52002856	      0.73310247	     15.07335957	     -4.80820547	      6.03426509	     28.52135504	     87.57297954	     12.62434024	     -4.52776468	     19.92719139	     22.66794429	     68.65110572
      0.08333330	     25.23724689	      6.76287656	      6.03011468	      0.18521706	      1.20501383	      0.18505616	    -28.83935029	      0.00707447	     -4.83680354	      5.58866752	      0.09754065	     17.24649958	     -7.00767867	     -7.49976483	    -29.82902417	      3.27435348	     -4.41304580	      3.55807727	      0.06210016	     17.27721408	      4.96706867	     -7.49976483	    -42.35941592	     -0.61168260	      0.93018413	     14.92548182	     -4.99286063	      5.46232809	     28.95999159	     88.39813945	     12.67027280	     -4.50721590	     19.60615601	     22.54468204	     69.07413747
      0.10000000	     25.23347103	      6.69010401	      6.09734849	      0.18403194	      1.20654650	      0.18496927	    -28.90205804	      0.10823867	     -4.82300806	      5.43569331	      0.09487075	     16.90727282	     -7.20806806	     -7.49996305	    -29.83240113	      3.22093053	     -4.41913814	      3.33577073	      0.05822018	     17.13721295	      4.88681959	     -7.49996305	    -42.48016198	     -0.55880024	      0.95192486	     15.08811537	     -5.30476333	      6.23641492	     29.02945268	     86.77376667	     12.83936043	     -4.50113238	     19.47208791	     22.43974550	     68.37513477
      0.11666670	     25.20507193	      6.66865844	      6.16913568	      0.18378667	      1.20655752	      0.18343556	    -28.97497963	      0.15545490	     -4.83712856	      5.20542197	      0.09085175	     16.65429006	     -7.37081551	     -7.49999548	    -29.83302079	      3.26389398	     -4.25497243	      3.11243573	      0.05432225	     16.82826750	      4.59244024	     -7.49999548	    -42.54994106	     -0.51159081	      0.90518872	     15.31142724	     -5.73057041	      8.00897033	     28.97557197	     81.75727672	     13.04597878	     -4.46490110	     19.58887308	     22.12520250	     66.24546523
